<?xml version="1.0" encoding="UTF-8"?><svg id="icons" xmlns="http://www.w3.org/2000/svg" viewBox="0 0 350 350"><defs><style>.cls-1{fill:none;stroke:#1d1d1d;stroke-linecap:round;stroke-linejoin:round;stroke-width:10px;}</style></defs><path class="cls-1" d="M106.99,119.81c14.45-28.67,45.63-46.1,78.65-42.12,38.63,4.65,67.86,37.15,68.4,76.06.08,5.67-.52,11.18-1.73,16.48"/><path class="cls-1" d="M253.98,151.62c14.28-1.71,28.54,4.17,37.44,15.7,9.69,12.54,11.33,29.53,4.2,43.69-7.13,14.16-21.75,22.96-37.59,22.64h-2.48"/><path class="cls-1" d="M105.48,233.64h-10.25c-25.34-.7-47.21-17.94-53.81-42.42-6.6-24.47,3.64-50.38,25.18-63.72,21.55-13.35,49.3-10.98,68.27,5.83"/><line class="cls-1" x1="120.48" y1="233.65" x2="240.54" y2="233.65"/><line class="cls-1" x1="132.8" y1="253.27" x2="228.23" y2="253.27"/><line class="cls-1" x1="97.22" y1="272.88" x2="263.81" y2="272.88"/><line class="cls-1" x1="132.8" y1="214.05" x2="228.23" y2="214.05"/><line class="cls-1" x1="113.28" y1="194.44" x2="174.15" y2="194.44"/><line class="cls-1" x1="246.56" y1="253.27" x2="307.44" y2="253.27"/><line class="cls-1" x1="323.14" y1="253.27" x2="330.56" y2="253.27"/><line class="cls-1" x1="39.44" y1="272.88" x2="80.75" y2="272.88"/></svg>