<?xml version="1.0" encoding="UTF-8"?><svg id="icons" xmlns="http://www.w3.org/2000/svg" viewBox="0 0 350 350"><defs><style>.cls-1{fill:none;stroke:#1d1d1d;stroke-linecap:round;stroke-linejoin:round;stroke-width:10px;}</style></defs><path class="cls-1" d="M112.26,103.27c14.45-28.67,45.63-46.1,78.65-42.12,38.63,4.65,67.86,37.15,68.4,76.06.08,5.67-.52,11.18-1.73,16.48"/><path class="cls-1" d="M259.25,135.08c14.28-1.71,28.54,4.17,37.44,15.7,9.69,12.54,11.33,29.53,4.2,43.69s-21.75,22.96-37.59,22.64h-2.48"/><path class="cls-1" d="M110.75,217.11h-10.25c-25.34-.7-47.21-17.94-53.81-42.42-6.6-24.47,3.64-50.38,25.18-63.72,21.55-13.35,49.3-10.98,68.27,5.83"/><circle class="cls-1" cx="147.11" cy="181.56" r="9.46"/><circle class="cls-1" cx="147.11" cy="220.26" r="9.46"/><circle class="cls-1" cx="147.11" cy="258.95" r="9.46" transform="translate(-87.9 76.01) rotate(-22.5)"/><circle class="cls-1" cx="185.78" cy="202.56" r="9.46"/><circle class="cls-1" cx="185.78" cy="241.26" r="9.46"/><circle class="cls-1" cx="185.78" cy="279.96" r="9.46"/><circle class="cls-1" cx="224.46" cy="258.95" r="9.46"/><circle class="cls-1" cx="224.46" cy="181.56" r="9.46"/><circle class="cls-1" cx="224.46" cy="220.26" r="9.46"/></svg>