<?xml version="1.0" encoding="UTF-8"?><svg id="icons" xmlns="http://www.w3.org/2000/svg" viewBox="0 0 350 350"><defs><style>.cls-1{fill:none;stroke:#1d1d1d;stroke-linecap:round;stroke-linejoin:round;stroke-width:10px;}</style></defs><path class="cls-1" d="M112.26,98.22c14.45-28.67,45.63-46.1,78.65-42.12,38.63,4.65,67.86,37.15,68.4,76.06.08,5.67-.52,11.18-1.73,16.48"/><path class="cls-1" d="M259.25,130.03c14.28-1.71,28.54,4.17,37.44,15.7,9.69,12.54,11.33,29.53,4.2,43.69-7.13,14.16-21.75,22.96-37.59,22.64h-28.9"/><path class="cls-1" d="M131.77,212.06h-31.26c-25.34-.7-47.21-17.94-53.81-42.42-6.6-24.47,3.64-50.38,25.18-63.72,21.55-13.35,49.3-10.98,68.27,5.83"/><line class="cls-1" x1="156.43" y1="169.35" x2="104.13" y2="259.93"/><line class="cls-1" x1="197.25" y1="169.35" x2="125.01" y2="294.46"/><line class="cls-1" x1="238.07" y1="169.35" x2="178" y2="273.38"/><line class="cls-1" x1="152.77" y1="212.06" x2="172.59" y2="212.06"/><line class="cls-1" x1="193.59" y1="212.06" x2="213.4" y2="212.06"/></svg>