<?xml version="1.0" encoding="UTF-8"?><svg id="icons" xmlns="http://www.w3.org/2000/svg" viewBox="0 0 350 350"><defs><style>.cls-1{fill:none;stroke:#1d1d1d;stroke-linecap:round;stroke-linejoin:round;stroke-width:10px;}</style></defs><path class="cls-1" d="M112.26,104.77c14.45-28.67,45.63-46.1,78.65-42.12,38.63,4.65,67.86,37.15,68.4,76.06.08,5.67-.52,11.18-1.73,16.48"/><path class="cls-1" d="M259.25,136.58c14.28-1.71,28.54,4.17,37.44,15.7,9.69,12.54,11.33,29.53,4.2,43.69-7.13,14.16-21.75,22.96-37.59,22.64h-21.13"/><path class="cls-1" d="M108.75,218.6h-8.25c-25.34-.7-47.21-17.94-53.81-42.42-6.6-24.47,3.64-50.38,25.18-63.72,21.55-13.35,49.3-10.98,68.27,5.83"/><line class="cls-1" x1="125.64" y1="233.62" x2="120.19" y2="243.06"/><line class="cls-1" x1="146.08" y1="198.2" x2="133.14" y2="220.63"/><line class="cls-1" x1="151.53" y1="188.77" x2="146.08" y2="198.2"/><line class="cls-1" x1="140.55" y1="278.48" x2="135.11" y2="287.92"/><line class="cls-1" x1="166.45" y1="233.62" x2="148.05" y2="265.49"/><line class="cls-1" x1="166.45" y1="233.62" x2="161" y2="243.06"/><line class="cls-1" x1="179.4" y1="211.19" x2="173.95" y2="220.63"/><line class="cls-1" x1="192.35" y1="188.77" x2="186.9" y2="198.2"/><line class="cls-1" x1="194.32" y1="256.05" x2="188.87" y2="265.49"/><line class="cls-1" x1="214.77" y1="220.63" x2="201.82" y2="243.06"/><line class="cls-1" x1="220.22" y1="211.19" x2="214.77" y2="220.63"/><line class="cls-1" x1="233.17" y1="188.77" x2="227.72" y2="198.2"/></svg>