<?xml version="1.0" encoding="UTF-8"?><svg id="icons" xmlns="http://www.w3.org/2000/svg" viewBox="0 0 350 350"><defs><style>.cls-1{fill:none;stroke:#1d1d1d;stroke-linecap:round;stroke-linejoin:round;stroke-width:10px;}</style></defs><path class="cls-1" d="M201.84,132.83c9.68-16.74,27.79-28.01,48.52-28.01,30.93,0,56.01,25.08,56.01,56.01,0,23.46-14.42,43.55-34.88,51.89"/><line class="cls-1" x1="250.36" y1="80.3" x2="250.36" y2="67.18"/><line class="cls-1" x1="297.7" y1="95.68" x2="305.42" y2="85.07"/><line class="cls-1" x1="326.97" y1="135.94" x2="339.45" y2="131.89"/><line class="cls-1" x1="326.97" y1="185.73" x2="339.45" y2="189.78"/><line class="cls-1" x1="297.7" y1="225.99" x2="305.42" y2="236.6"/><line class="cls-1" x1="203.01" y1="95.68" x2="195.29" y2="85.07"/><path class="cls-1" d="M82.1,156.97c14.45-28.67,45.63-46.1,78.65-42.12,38.63,4.65,67.86,37.16,68.4,76.06.08,5.67-.52,11.18-1.73,16.48"/><path class="cls-1" d="M229.09,188.78c14.28-1.71,28.54,4.17,37.44,15.7,9.69,12.54,11.33,29.53,4.2,43.69s-21.75,22.96-37.59,22.64H70.35c-25.34-.7-47.21-17.95-53.81-42.42-6.6-24.47,3.64-50.38,25.18-63.72,21.55-13.35,49.3-10.98,68.27,5.83"/></svg>