<?xml version="1.0" encoding="UTF-8"?><svg id="icons" xmlns="http://www.w3.org/2000/svg" viewBox="0 0 350 350"><defs><style>.cls-1{fill:none;stroke:#1d1d1d;stroke-linecap:round;stroke-linejoin:round;stroke-width:10px;}</style></defs><path class="cls-1" d="M112.26,107.81c14.45-28.67,45.63-46.1,78.65-42.12,38.63,4.65,67.86,37.15,68.4,76.06.08,5.67-.52,11.18-1.73,16.48"/><path class="cls-1" d="M259.25,139.62c14.28-1.71,28.54,4.17,37.44,15.7,9.69,12.54,11.33,29.53,4.2,43.69-7.13,14.16-21.75,22.96-37.59,22.64h-2.48"/><path class="cls-1" d="M110.75,221.65h-10.25c-25.34-.7-47.21-17.94-53.81-42.42-6.6-24.47,3.64-50.38,25.18-63.72,21.55-13.35,49.3-10.98,68.27,5.83"/><polyline class="cls-1" points="204.81 167.53 185.77 186.73 166.69 167.53"/><polyline class="cls-1" points="152.06 175.94 159.06 202.03 132.98 209.04"/><polyline class="cls-1" points="132.98 225.81 159.06 232.82 152.06 258.91"/><polyline class="cls-1" points="166.69 267.36 185.77 248.12 204.85 267.24"/><polyline class="cls-1" points="219.45 258.91 212.44 232.82 238.52 225.81"/><polyline class="cls-1" points="238.44 209.04 212.36 202.03 219.37 175.94"/><line class="cls-1" x1="185.77" y1="149.98" x2="185.77" y2="217.44"/><line class="cls-1" x1="127.37" y1="183.77" x2="185.77" y2="217.44"/><line class="cls-1" x1="127.37" y1="251.08" x2="185.77" y2="217.44"/><line class="cls-1" x1="185.77" y1="284.87" x2="185.77" y2="217.44"/><line class="cls-1" x1="244.13" y1="251.08" x2="185.77" y2="217.44"/><line class="cls-1" x1="244.13" y1="183.77" x2="185.77" y2="217.44"/></svg>