<?xml version="1.0" encoding="UTF-8"?><svg id="icons" xmlns="http://www.w3.org/2000/svg" viewBox="0 0 350 350"><defs><style>.cls-1{fill:none;stroke:#1d1d1d;stroke-linecap:round;stroke-linejoin:round;stroke-width:10px;}</style></defs><path class="cls-1" d="M199.74,99.73c9.66-16.83,27.81-28.17,48.62-28.17,30.93,0,56.01,25.08,56.01,56.01,0,23.49-14.47,43.61-34.98,51.93"/><line class="cls-1" x1="248.36" y1="47.03" x2="248.36" y2="33.91"/><line class="cls-1" x1="295.7" y1="62.41" x2="303.42" y2="51.8"/><line class="cls-1" x1="324.97" y1="102.68" x2="337.45" y2="98.63"/><line class="cls-1" x1="324.97" y1="152.46" x2="337.45" y2="156.51"/><line class="cls-1" x1="295.7" y1="192.73" x2="303.42" y2="203.33"/><line class="cls-1" x1="201.01" y1="62.41" x2="193.29" y2="51.8"/><path class="cls-1" d="M80.1,123.95c14.45-28.67,45.63-46.1,78.65-42.12,38.63,4.65,67.86,37.15,68.4,76.06.08,5.67-.52,11.18-1.73,16.48"/><path class="cls-1" d="M227.09,155.76c14.28-1.71,28.54,4.17,37.44,15.7,9.69,12.54,11.33,29.53,4.2,43.69-7.13,14.16-21.75,22.96-37.59,22.64h-18.13"/><path class="cls-1" d="M76.59,237.79h-8.25c-25.34-.7-47.21-17.94-53.81-42.42-6.6-24.47,3.64-50.38,25.18-63.72,21.55-13.35,49.3-10.98,68.27,5.83"/><line class="cls-1" x1="103.84" y1="246.65" x2="96.87" y2="258.72"/><line class="cls-1" x1="120.4" y1="217.97" x2="113.43" y2="230.04"/><line class="cls-1" x1="107.57" y1="304.02" x2="100.6" y2="316.09"/><line class="cls-1" x1="124.13" y1="275.33" x2="117.16" y2="287.4"/><line class="cls-1" x1="140.69" y1="246.65" x2="133.72" y2="258.72"/><line class="cls-1" x1="157.25" y1="217.97" x2="150.28" y2="230.04"/><line class="cls-1" x1="160.98" y1="275.33" x2="154.01" y2="287.4"/><line class="cls-1" x1="177.54" y1="246.65" x2="170.57" y2="258.72"/><line class="cls-1" x1="194.1" y1="217.97" x2="187.13" y2="230.04"/></svg>