<?xml version="1.0" encoding="UTF-8"?><svg id="icons" xmlns="http://www.w3.org/2000/svg" viewBox="0 0 350 350"><defs><style>.cls-1{fill:none;stroke:#1d1d1d;stroke-linecap:round;stroke-linejoin:round;stroke-width:10px;}</style></defs><path class="cls-1" d="M259.25,124.81c14.28-1.71,28.54,4.17,37.44,15.7,9.69,12.54,11.33,29.53,4.2,43.69s-21.75,22.96-37.59,22.64h-8.79"/><polygon class="cls-1" points="164.33 147.92 144.66 217.3 175.16 217.3 145.03 299.69 236.1 192.1 185.69 192.1 212.07 147.92 164.33 147.92"/><path class="cls-1" d="M112.26,93c14.45-28.67,45.63-46.1,78.65-42.12,38.63,4.65,67.86,37.15,68.4,76.06.08,5.67-.52,11.18-1.73,16.48"/><path class="cls-1" d="M117.05,206.83h-16.54c-25.34-.7-47.21-17.94-53.81-42.42-6.6-24.47,3.64-50.38,25.18-63.72,21.55-13.35,49.3-10.98,68.27,5.83"/></svg>